<svg xmlns="http://www.w3.org/2000/svg" viewBox="0 0 64 64">
  <rect width="64" height="64" rx="12" fill="#0F4C5C"/>
  <!-- Left building (taller) -->
  <rect x="10" y="20" width="20" height="34" rx="2" fill="white" opacity="0.9"/>
  <!-- Right building (shorter) -->
  <rect x="34" y="30" width="20" height="24" rx="2" fill="white" opacity="0.7"/>
  <!-- Windows left building -->
  <rect x="14" y="24" width="5" height="4" rx="1" fill="#0F4C5C"/>
  <rect x="21" y="24" width="5" height="4" rx="1" fill="#0F4C5C"/>
  <rect x="14" y="31" width="5" height="4" rx="1" fill="#0F4C5C"/>
  <rect x="21" y="31" width="5" height="4" rx="1" fill="#0F4C5C"/>
  <rect x="14" y="38" width="5" height="4" rx="1" fill="#0F4C5C"/>
  <rect x="21" y="38" width="5" height="4" rx="1" fill="#0F4C5C"/>
  <!-- Windows right building -->
  <rect x="38" y="34" width="5" height="4" rx="1" fill="#0F4C5C"/>
  <rect x="45" y="34" width="5" height="4" rx="1" fill="#0F4C5C"/>
  <rect x="38" y="41" width="5" height="4" rx="1" fill="#0F4C5C"/>
  <rect x="45" y="41" width="5" height="4" rx="1" fill="#0F4C5C"/>
  <!-- Door left building -->
  <rect x="17" y="44" width="6" height="10" rx="1" fill="#1F3D2B"/>
</svg>
